<svg width="1901" height="558" viewBox="0 0 1901 558" fill="none" xmlns="http://www.w3.org/2000/svg">
<g clip-path="url(#clip0_124_40)">
<path d="M589.81 213.19C589 243.32 592.81 276.19 577.87 307.55C552.58 360.38 514.47 397.68 456.19 411.1C443.89 413.93 436.28 417.51 435.42 431.39C434.73 442.52 427.56 451.73 422.19 461.21C388.69 520.21 339.28 553.3 269.95 556.29C219.83 558.46 170.22 560.22 120.83 547.76C58.7299 532.1 -2.28008 455.56 0.339916 393.11C2.16992 349.5 -4.66003 305.66 7.14997 262.26C18.48 220.64 44.2599 191.52 79.5499 169.13C97.0599 158.02 115.88 149.66 136.29 145.96C145.94 144.21 150.89 139.55 152.73 130.5C167.5 57.6899 238.78 5.06987 316.8 1.49987C359.14 -0.440133 401.74 -1.32017 444.31 4.20983C524.06 14.5798 588.89 85.21 589.79 165.41C589.96 180.48 589.81 195.57 589.81 213.19ZM259.31 119.4C262.93 119.86 266.14 119.4 267.84 115.57C276.55 113.96 285.56 110.04 293.91 111.15C326.7 115.48 359.38 110.78 392.11 111.52C441.25 112.65 466.61 137.05 466.83 186.36C466.91 205.54 466.36 224.71 466.58 243.88C466.77 259.21 462.24 272.79 450.08 282.04C436.86 292.1 441.43 305.37 441.43 317.81C441.43 325.19 446.52 324.05 451.69 322.23C476.39 313.54 498.9 282.66 499.24 255.66C499.61 226.21 501.24 196.6 498.83 167.34C496.17 134.48 481.98 107.71 448.83 93.7299C404.98 75.1999 359.38 82.5702 314.83 85.8002C297.96 87.0302 274.36 91.3901 267.53 115.24C263.58 114.38 260.81 115.63 259.59 119.66L256.2 123.8L258.66 125.1C258.9 123.2 259.11 121.3 259.31 119.4ZM411.75 348.4C413.52 317.03 412.97 283.82 399.15 252.02C384.97 219.38 360.41 197.66 328.78 183.4C317.98 178.54 305.73 185.62 302.58 193.25C298.94 202.05 312.35 202.08 318.58 204.04C348.51 213.47 367.3 232.35 375.96 262.89C386.68 300.73 382.38 339.16 382.75 377.37C383.3 432.55 352.27 475.94 298.23 489.48C249.92 501.59 199.48 499.98 151.05 491.03C94.5899 480.59 57.3699 431.98 60.5999 373.39C61.7599 352.2 59.5999 330.81 61.0899 309.65C64.2399 264.71 81.53 227.76 124.65 207.12C130.23 204.45 135.78 201.73 141.34 199.03C151.46 194.13 149.46 184.94 147.12 177.57C144.39 168.96 136.77 173.35 131.37 175.19C81.3699 192.19 45.2799 223.76 33.0499 276.44C22.8799 320.25 23.3898 365.88 30.9798 409.24C41.4498 469.03 80.7599 508.72 140.33 523.82C182.53 534.52 226.08 529.82 269.33 528.77C327.71 527.31 366.33 496.34 395.64 450.42C415.04 419.92 413.05 384.94 411.75 348.36V348.4ZM288.33 357.45C227.41 337.09 209.46 312.15 209.33 249.45C209.27 222.71 208.85 195.97 209.53 169.25C210.94 113.1 262.84 60.44 319.19 58.66C352.83 57.59 386.56 57.66 420.19 58.66C463.93 60.04 507.3 92.6598 521.89 133.73C534.43 169.07 527.7 205.78 528.3 241.85C529.19 296.23 504.95 330.14 453.83 350.18C443.12 354.38 435.1 373.1 441.89 381.57C449.27 390.79 457.73 382.47 465.3 379.57C470.3 377.63 474.76 374.33 479.53 371.76C522.97 348.4 553.66 315.42 558.63 264.23C562.27 226.72 562.63 189.04 558.3 151.54C550.69 86.1499 510.89 46.6199 449.48 33.5399C396.821 22.432 342.43 22.3774 289.75 33.3797C232.66 45.3797 192.17 80.5301 180.45 142.01C174.32 174.12 177.86 206.22 177.29 238.31C176.35 291.5 197.22 332.86 243.29 362.6C261.46 374.24 273.44 373.94 288.33 357.41V357.45ZM90.39 345.45H90.0999C90.0999 355.73 90.0999 366 90.0999 376.28C90.2399 431.56 124.68 467.59 180.1 469.37C207.54 470.26 235.1 470.89 262.48 469.22C308.17 466.42 341.85 444.3 351.29 401.22C355.9 380.22 352.76 358.92 353.4 337.77C353.5 334.39 352.86 330.86 348.48 330.04C334.62 327.46 314.71 352.51 320.05 366.43C322.46 372.72 326.73 378.29 330.05 384.26C345.44 412.39 328.28 443.65 296.05 444.34C259.89 445.11 223.66 445.02 187.51 443.83C148.32 442.53 123.6 415.65 123.43 376.29C123.36 357.8 124.24 339.29 123.18 320.82C122.18 303.24 126.86 287.72 139.06 275.88C149.6 265.66 148.31 253.99 148.34 241.78C148.34 231.04 144.22 228.12 134.43 233.21C107.16 247.4 94.6398 271.57 90.6998 300.34C88.7198 315.07 90.39 330.37 90.39 345.43V345.45ZM347.09 281.9C347.79 251.39 326.03 228.16 295.83 227.17C268.83 226.29 244.05 249.33 242.91 276.3C241.76 303.43 266.41 328.3 295.07 328.95C322.6 329.55 346.49 307.94 347.09 281.87V281.9ZM433.57 260.37C444.77 232.25 440.41 207.5 440.57 183.26C440.79 158.06 426.49 144.38 401.01 143.55C384.59 143.01 368.13 143.13 351.71 143.49C346.06 143.62 337.71 140.41 335.82 148.43C334.19 155.38 341.34 158.67 346.82 161.48C387.16 182.31 416.55 213.1 433.55 260.35L433.57 260.37ZM158.57 304.69L151.72 306.98C151.72 331.35 151.38 355.73 151.82 380.09C152.21 401.74 162.55 413.82 183.93 415.46C203.08 416.92 222.42 415.94 241.67 415.93C246.56 415.93 251.91 415.61 253.31 409.79C254.71 403.97 250.41 401.24 245.86 398.99C232.375 392.396 220.078 383.61 209.47 372.99C189.16 352.7 169.87 331.97 158.61 304.67L158.57 304.69ZM250.27 138.69C228.07 166.69 237.1 195.23 235.9 222.08C235.77 225.08 238.49 226.14 241.71 226.08C260.55 225.53 276.82 197.83 265.33 182.53C256.14 170.12 249.95 157.93 250.31 138.63L250.27 138.69ZM295.75 386.87C283.83 388.21 275.51 393.36 275.75 405.98C275.94 417.42 283.36 423.39 294.36 423.6C306.1 423.84 315.44 417.09 315.87 405.99C316.26 394.71 306.71 388.7 295.75 386.87ZM291.98 169.4C304.83 170.05 312.98 163.88 312.54 151.84C312.15 140.64 304.17 132.99 292.39 133.08C281.6 133.16 273.73 140.08 273.45 150.67C273.15 161.93 279.08 170.24 291.98 169.43V169.4ZM253.4 132.99L252.72 134.23L253.72 134.36L253.4 132.99Z" fill="#02A6E7"/>
<path d="M1204.08 274.92C1204.08 308.49 1203.53 342.08 1204.35 375.63C1204.69 389.45 1199.18 395.74 1186.43 392.72C1172.29 389.37 1152.92 404.16 1143.87 381.32C1143.76 381.03 1137.54 382.32 1134.87 384C1109.46 399.77 1083.03 404.3 1057.87 385.78C1030.73 365.84 1018.54 337.31 1021.11 303.78C1023.11 278.11 1030.88 254.08 1052.11 237.3C1074.65 219.46 1099.67 216.3 1125.27 230.13C1138.5 237.27 1141.72 234.02 1141.07 220.13C1140.27 203.04 1141.25 185.87 1140.71 168.75C1140.37 157.97 1144.71 155.09 1155.28 154.7C1204.17 152.86 1204.15 152.53 1204.15 200.95L1204.08 274.92ZM1138.68 310.73C1138.68 277.73 1130.76 268 1109.36 273.14C1089.02 278.02 1089.85 294.84 1089.12 310.63C1088.36 327.11 1092.98 340.3 1110.33 345.79C1115.23 347.34 1119.47 345.46 1123.84 343.02C1137.89 335.17 1140.89 322.87 1138.68 310.73Z" fill="white"/>
<path d="M628.49 273.11C628.49 240.19 628.98 207.26 628.25 174.36C627.95 160.82 631.04 154.74 646.33 154.57C695.33 154.01 695.33 153.42 695.33 202.63V206.75C695.33 233.65 695.33 233.65 720.45 224.86C758.91 211.43 793.66 230.96 799.9 271.74C805.51 308.44 806.25 346.51 800.36 382.4C796.54 405.64 767.96 388.68 751.04 392.76C740.36 395.34 734.8 390.28 735.13 378.07C735.84 352.07 734.94 325.95 735.49 299.9C735.78 286.39 732.22 275.6 717.24 275.77C702.85 275.92 695.32 285.04 695.44 300.03C695.63 324.72 694.75 349.43 695.59 374.09C696.05 387.82 692.59 393.4 677.42 393.41C628.53 393.46 628.53 394.09 628.53 345.12L628.49 273.11Z" fill="white"/>
<path d="M1340.37 310.18C1340.37 287.56 1340.63 264.94 1340.25 242.34C1340.07 232.17 1343.69 225.25 1354.3 227.82C1369.47 231.5 1388.63 216.55 1400.3 237.94C1402.4 241.79 1407.62 237.03 1410.58 234.65C1436.08 214.09 1469.75 217.44 1497.71 240.08C1510.71 250.59 1515.03 267.9 1515.71 284.14C1516.99 315.61 1515.98 347.14 1516.42 378.69C1516.57 389.3 1512.35 392.63 1501.86 393.27C1447.86 396.54 1447.86 396.81 1447.86 344.03C1447.86 328.27 1447.51 312.5 1447.97 296.75C1448.34 283.85 1442.3 277.26 1429.78 277.25C1417.42 277.25 1407.91 282.17 1407.69 296.15C1407.29 322.15 1406.85 348.26 1407.79 374.26C1408.3 388.55 1403.67 393.26 1389.12 393.36C1340.37 393.76 1340.38 394.29 1340.38 345.13L1340.37 310.18Z" fill="white"/>
<path d="M993.8 331.64C993.8 347.4 993.74 363.16 993.8 378.93C993.8 383.54 996.36 390.47 990.4 391.35C972.91 393.93 952.82 398.7 938.4 389.64C928.4 383.33 925.35 386.58 918.54 390.14C895.88 401.96 872.16 401.49 851.9 387.35C832.03 373.47 825.9 351.66 830.19 327.23C834.71 301.55 854.91 294.47 875.65 288.5C888.15 284.9 901.24 283.391 913.99 280.611C917.57 279.831 923.46 281.45 923.78 275.75C924.13 269.75 918.59 268.11 913.91 267.51C896.754 265.409 879.347 267.822 863.41 274.51C851.61 279.38 849.86 274.97 847.27 265.33C839.62 236.86 840.8 234.26 868.86 227.79C894.71 221.84 920.6 221.28 946.53 227.16C974.05 233.39 989.15 249.66 991.39 278.16C992.78 295.86 991.65 313.76 991.65 331.57L993.8 331.64ZM918.41 317.64C904.72 318.24 892.62 327.21 893.53 336.54C894.53 347.02 902.13 349.4 911.02 349.07C925.22 348.54 928.29 337.97 929.93 326.87C931.25 318.07 925.29 317.01 918.41 317.69V317.64Z" fill="white"/>
<path d="M1795.88 299.16C1795.88 274.48 1796.32 249.8 1795.7 225.16C1795.38 212.24 1799.57 206.28 1813.35 206.67C1837.35 207.34 1861.45 206.78 1885.5 206.87C1892.34 206.87 1902.5 206.87 1900.03 216.05C1897.28 226.39 1905.16 243.18 1886.48 246.05C1878.29 247.162 1870 247.239 1861.79 246.28C1847.24 244.8 1842.79 250.99 1842.58 265.07C1842.38 280.66 1851.21 281.33 1862.48 280.78C1867.28 280.55 1872.15 281.2 1876.9 280.66C1891.42 279.04 1897.9 283.66 1897.9 299.78C1897.9 315.36 1891.29 318.67 1878.03 317.39C1871.9 316.8 1865.63 317.74 1859.49 317.2C1846.95 316.1 1842.62 321.52 1842.64 333.89C1842.64 345.89 1846.12 352.16 1859.04 350.89C1863.81 350.42 1868.66 350.81 1873.47 350.84C1895.47 350.98 1904.65 364.74 1896.9 384.99C1894.2 392.04 1888.8 391.42 1883.45 391.45C1859.45 391.56 1835.34 391.19 1811.3 391.64C1799.36 391.87 1795.71 386.06 1795.81 375.26C1796.05 349.87 1795.89 324.52 1795.88 299.16Z" fill="#02A6E7"/>
<path d="M1680.72 319.43C1680.72 302.3 1680.06 285.141 1680.9 268.051C1681.68 252.361 1676.52 245.42 1659.68 246.69C1652.63 247.23 1637.3 252.861 1639.46 238.801C1641.31 226.801 1641.08 207.35 1661.38 206.89C1696.38 206.1 1731.44 206.62 1766.48 206.63C1773.08 206.63 1780.48 207.63 1778.18 216.37C1775.04 228.37 1774.98 242.941 1758.62 247.111C1748.75 249.621 1734.62 240.48 1729.44 254.19C1725.99 263.27 1727.8 274.45 1727.75 284.69C1727.59 314.15 1726.9 343.691 1727.98 373.071C1728.67 392.121 1717.41 391.61 1704.08 391.71C1690.49 391.82 1679.29 391.711 1680.49 372.861C1681.62 355.121 1680.73 337.25 1680.72 319.43Z" fill="#02A6E7"/>
<path d="M1305.64 309.19C1305.64 331.79 1305.08 354.41 1305.87 376.99C1306.32 389.71 1301.59 393.14 1289.19 393.35C1240.09 394.16 1240.1 394.57 1240.09 345.45C1240.09 312.57 1240.57 279.69 1239.86 246.83C1239.56 233.32 1242.71 227.31 1257.95 227.15C1305.65 226.66 1305.64 226.04 1305.64 274.26V309.19Z" fill="white"/>
<path d="M1609.24 299.79C1609.24 325.08 1608.41 350.4 1609.51 375.65C1610.36 395.06 1598.26 393.4 1585.4 393.96C1571.28 394.59 1563.94 391.34 1564.21 374.96C1565.03 325.08 1565.21 275.15 1564.13 225.28C1563.66 204.28 1576.37 207.28 1589.57 206.34C1604.88 205.24 1610.25 210.51 1609.57 226C1608.4 250.53 1609.23 275.18 1609.24 299.79Z" fill="#02A6E7"/>
<path d="M1251.67 207.92C1251.82 198.77 1256.88 193.64 1260.04 187.77C1274.79 160.33 1293.6 152.09 1323.12 159.28C1329.31 160.79 1330.81 162.56 1327.69 168.91C1312.09 200.71 1290.31 212.27 1251.67 207.92Z" fill="white"/>
<path d="M1685.47 427.77C1706.79 427.77 1712.83 434.01 1713.26 453.69C1713.69 473.37 1701.39 477.69 1685.55 478.06C1666.39 478.52 1655.2 468.93 1655.4 452.78C1655.6 436.03 1665.55 427.74 1685.47 427.77ZM1684.3 465.29C1692.47 465.69 1699.87 464.77 1700.53 454.35C1701.23 443.19 1694.34 440.46 1684.82 440.43C1676.19 440.43 1669.63 442.85 1669.54 452.74C1669.44 462.42 1675.33 465.87 1684.3 465.29Z" fill="white"/>
<path d="M1877.06 450.17C1886.22 445.36 1873.98 426.42 1889.39 429.24C1901.65 431.49 1894 445.34 1894.79 453.75C1895.46 461.03 1899.79 471.81 1890.17 475.63C1882.39 478.71 1877.33 469.96 1871.96 464.96C1863.85 457.41 1855.13 447.47 1853.81 469.17C1853.59 472.89 1852.11 476.23 1848.18 476.31C1842.86 476.4 1841.54 471.96 1841.87 467.83C1842.87 455.19 1835.56 437.83 1845.78 431.14C1856 424.45 1862.92 442.14 1872.12 447.87C1873.71 448.752 1875.36 449.521 1877.06 450.17Z" fill="white"/>
<path d="M803.65 451.7C804.17 433.41 811.74 427.35 833.55 427.75C853.4 428.12 861.22 436.18 860.65 454.89C860.05 474.51 846.52 477.73 831.24 477.95C811.07 478.23 803.13 470.29 803.65 451.7ZM832.87 465.25C840.52 465.88 847.15 463.85 847.37 453.59C847.63 442.02 839.81 440.53 830.84 440.49C821.87 440.45 816.45 443.74 816.66 453.68C816.88 464.23 823.55 465.8 832.87 465.25Z" fill="white"/>
<path d="M634.55 457.69C628.96 452.97 620.99 449.22 624.87 439.77C628.4 431.16 635.87 428.18 644.73 428.15C647.47 428.15 650.28 427.7 652.92 428.2C659.14 429.39 667.65 424.08 671.32 431.86C675.73 441.19 661.82 439.68 660.86 446.86C668.47 450.68 680.76 451.62 677.44 464.86C674.53 476.47 664.14 477.08 654.3 477.14C646.79 477.19 639.3 477.14 631.77 476.78C628.38 476.6 624.58 475.37 624.55 471.18C624.55 465.56 629.77 465.93 633.37 464.6C643.37 466.14 653.37 467.39 667.97 461.98C653.94 456.1 644.09 458.08 634.55 457.69Z" fill="white"/>
<path d="M1212.85 453.99C1210.93 460.99 1218.61 474.19 1204.2 476.36C1190.2 478.46 1174.42 480.36 1164.12 467.07C1156.02 456.65 1156.88 443.47 1160.12 431.53C1161.49 426.53 1167.91 426.73 1171.4 431.86C1172.4 433.37 1172.12 435.86 1172.24 437.86C1172.95 449.56 1168.51 465.63 1188.13 464.45C1206.52 463.34 1195.48 447.57 1198.13 438.65C1199.51 434.04 1198.82 428.77 1205.54 428.48C1212.54 428.19 1212.75 433.23 1212.79 438.21C1212.89 443.03 1212.85 447.87 1212.85 453.99Z" fill="white"/>
<path d="M988.02 450.98C988.02 446.89 987.93 442.81 988.02 438.73C988.16 433.96 987.78 428.43 994.92 428.73C1002.06 429.03 1001.52 435.02 1000.86 439.38C997.86 459.08 1003.99 469.21 1025.77 465.07C1030.3 464.21 1037.08 464.53 1037.36 470.41C1037.71 478.02 1030.36 476.89 1025.16 477.31C1021.77 477.58 1018.34 477.31 1014.93 477.31C987.97 477.37 987.97 477.37 988.02 450.98Z" fill="white"/>
<path d="M1390.87 433.87C1389.74 436.05 1388.87 439.33 1387.87 439.35C1365.97 439.79 1371.49 455.94 1370.87 468.53C1370.64 473.02 1369.37 476.92 1363.97 476.59C1362.23 476.569 1360.56 475.913 1359.27 474.745C1357.98 473.577 1357.16 471.979 1356.97 470.25C1355.41 457.25 1362.07 440.31 1339.84 437.73C1337.39 437.45 1336.79 430.49 1340.77 429.73C1356.29 426.73 1372.05 427.55 1387.69 429.41C1388.88 429.56 1389.78 432.29 1390.87 433.87Z" fill="white"/>
<path d="M1529.6 452.92C1529.6 456.97 1529.6 461.02 1529.6 465.07C1529.6 470.65 1529.72 476.83 1521.89 476.4C1514.06 475.97 1515.17 469.45 1515.13 464.15C1515.08 457.4 1514.65 450.61 1515.27 443.91C1515.82 438.07 1511.68 428.29 1522.85 428.91C1533.55 429.48 1528.39 439.05 1529.51 444.86C1530.02 447.44 1529.61 450.22 1529.6 452.92Z" fill="white"/>
<path d="M259.63 119.66C260.85 115.66 263.63 114.38 267.57 115.24L267.84 115.57C266.14 119.39 262.93 119.86 259.31 119.4L259.63 119.66Z" fill="#EEF3F9"/>
<path d="M259.31 119.4C259.11 121.3 258.9 123.2 258.7 125.1L256.24 123.8L259.63 119.66L259.31 119.4Z" fill="#EEF3F9"/>
<path d="M253.4 133.02L253.77 134.38L252.72 134.26L253.4 133.02Z" fill="#EEF3F9"/>
<path d="M267.46 275.99C268.55 265.26 275.39 255.29 289.93 255.32C306.77 255.32 325.62 270.24 325.2 280.8C324.66 294.2 308.2 308.47 293.96 307.8C279.99 307.18 267.08 293.29 267.46 275.99Z" fill="#02A6E7"/>
</g>
<defs>
<clipPath id="clip0_124_40">
<rect width="1900.4" height="557.83" fill="white"/>
</clipPath>
</defs>
</svg>
