<svg xmlns="http://www.w3.org/2000/svg" xmlns:xlink="http://www.w3.org/1999/xlink" viewBox="0 0 1080 1295.52"><defs><style>.cls-1{isolation:isolate;}.cls-2{fill:url(#linear-gradient);}.cls-3{fill:url(#linear-gradient-2);}.cls-4{fill:url(#linear-gradient-3);}.cls-5{fill:url(#linear-gradient-4);}.cls-6{fill:#e1f9ff;}.cls-10,.cls-6,.cls-8{mix-blend-mode:hard-light;}.cls-7{fill:#b8d6ff;}.cls-8{fill:#757575;}.cls-9{fill:#fff;}.cls-10{fill:#f5f5f5;}.cls-11{fill:url(#linear-gradient-5);}.cls-12{fill:url(#linear-gradient-6);}.cls-13{fill:url(#linear-gradient-7);}.cls-14{fill:#d4dbe1;}.cls-15{fill:#c5ccd1;}.cls-16{fill:#4aafff;}.cls-17{fill:#1487e3;}.cls-18{fill:#1a598c;}.cls-19{fill:#2273b5;}.cls-20{fill:#3788cc;}.cls-21{fill:url(#linear-gradient-8);}.cls-22{fill:url(#linear-gradient-9);}.cls-23{fill:url(#linear-gradient-10);}.cls-24{fill:url(#linear-gradient-11);}.cls-25{fill:url(#linear-gradient-12);}.cls-26{fill:url(#linear-gradient-13);}.cls-27{fill:url(#linear-gradient-14);}.cls-28{fill:#e2d2ca;}.cls-29{fill:#706865;}.cls-30{fill:#ccbdb7;}.cls-31{fill:#998e89;}.cls-32{fill:#b59074;}.cls-33{fill:#ff5a58;}.cls-34{fill:#424773;}.cls-35{fill:#292c47;}.cls-36{fill:#eea886;}.cls-37{fill:#3a3f47;}.cls-38{fill:#323657;}.cls-39{fill:#918783;}.cls-40{fill:#5e5854;}.cls-41{fill:#bfb2ac;}.cls-42{fill:#b8aba5;}.cls-43{fill:#f5f7ff;}.cls-44{fill:#918681;}.cls-45{fill:#dfe1e8;}.cls-46{fill:#e0e0e0;}.cls-47{fill:#b8b8b8;}.cls-48{fill:#d9d9d9;}.cls-49{fill:url(#linear-gradient-15);}.cls-50{fill:url(#linear-gradient-16);}.cls-51{fill:#7ac4ff;}.cls-52{fill:#5c544d;}.cls-53{fill:#3c4145;}.cls-54{fill:#33373b;}.cls-55{fill:#fccca2;}.cls-56{fill:#495054;}.cls-57{fill:#d6d6d6;}.cls-58{fill:#c98462;}.cls-59{fill:#de9d7d;}.cls-60{fill:#d64c4a;}.cls-61{fill:#3d416b;}.cls-62{fill:#cfbeb6;}.cls-63{fill:#23263d;}.cls-64{fill:#807066;}.cls-65{fill:#191b2b;}.cls-66{fill:#a77860;}.cls-67{fill:#b03e3d;}.cls-68{fill:#282b45;}.cls-69{fill:#eddad3;}</style><linearGradient id="linear-gradient" x1="780.68" y1="426.16" x2="1003.28" y2="426.16" gradientUnits="userSpaceOnUse"><stop offset="0.01" stop-color="#3c6127"/><stop offset="1" stop-color="#639c38"/></linearGradient><linearGradient id="linear-gradient-2" x1="-14485.01" y1="-5864.68" x2="-14485.01" y2="-6021.18" gradientTransform="matrix(-0.71, -0.7, -0.7, 0.71, -13669.79, -5454.35)" xlink:href="#linear-gradient"/><linearGradient id="linear-gradient-3" x1="801.99" y1="358.97" x2="907.35" y2="358.97" xlink:href="#linear-gradient"/><linearGradient id="linear-gradient-4" x1="-14526.57" y1="-4108.58" x2="-14526.57" y2="-4262.26" gradientTransform="matrix(-0.84, -0.54, -0.54, 0.84, -13653.24, -3907.38)" xlink:href="#linear-gradient"/><linearGradient id="linear-gradient-5" x1="547.05" y1="873.65" x2="203.47" y2="873.65" gradientUnits="userSpaceOnUse"><stop offset="0" stop-color="#ffc05c"/><stop offset="1" stop-color="#ff3857"/></linearGradient><linearGradient id="linear-gradient-6" x1="547.05" y1="892.43" x2="203.47" y2="892.43" xlink:href="#linear-gradient-5"/><linearGradient id="linear-gradient-7" x1="547.05" y1="911.21" x2="203.47" y2="911.21" xlink:href="#linear-gradient-5"/><linearGradient id="linear-gradient-8" x1="32.03" y1="942.77" x2="156.85" y2="942.77" gradientUnits="userSpaceOnUse"><stop offset="0" stop-color="#40d5e6"/><stop offset="1" stop-color="#57f"/></linearGradient><linearGradient id="linear-gradient-9" x1="123.59" y1="1012.42" x2="236.47" y2="1012.42" xlink:href="#linear-gradient-8"/><linearGradient id="linear-gradient-10" x1="133.24" y1="1028.83" x2="217.96" y2="1028.83" xlink:href="#linear-gradient-8"/><linearGradient id="linear-gradient-11" x1="102.65" y1="960.66" x2="201.31" y2="960.66" xlink:href="#linear-gradient-8"/><linearGradient id="linear-gradient-12" x1="80" y1="1102.18" x2="171.05" y2="1102.18" gradientUnits="userSpaceOnUse"><stop offset="0" stop-color="#ff9340"/><stop offset="1" stop-color="#ffce45"/></linearGradient><linearGradient id="linear-gradient-13" x1="80" y1="1102.18" x2="171.05" y2="1102.18" gradientUnits="userSpaceOnUse"><stop offset="0" stop-color="#c97332"/><stop offset="1" stop-color="#ffce45"/></linearGradient><linearGradient id="linear-gradient-14" x1="510.91" y1="581.17" x2="436.55" y2="581.17" gradientTransform="translate(-217.4 -210.3)" xlink:href="#linear-gradient-8"/><linearGradient id="linear-gradient-15" x1="292.14" y1="516.47" x2="669.91" y2="516.47" xlink:href="#linear-gradient-5"/><linearGradient id="linear-gradient-16" x1="292.14" y1="506.25" x2="670.1" y2="506.25" xlink:href="#linear-gradient-8"/></defs><g class="cls-1"><g id="Layer_1" data-name="Layer 1"><image width="300" height="72" transform="translate(288.13 118.03) scale(1.68 1.67)" xlink:href="../../../images/logo-sikola.png"/><path class="cls-2" d="M800.58,433c-16.1,30.67-25.8,60-15.9,73.83a17.51,17.51,0,0,0,1.94,2.26c7.78,7.64,23.84,8.67,51.55-.59,73.75-24.63,79.83-73.68,97-121,17-46.7,66.82-36,68.09-35.68C888.29,304.77,827.9,381.06,800.58,433Z"/><path class="cls-3" d="M784.68,506.87a17.51,17.51,0,0,0,1.94,2.26c14-7.44,40.9-23.36,54.2-42.15,6.27-8.87,11.68-18.93,17.42-29.57,10.82-20.13,22-41,40.49-56.38l-1.85-2.21c-18.87,15.8-30.21,36.85-41.17,57.23-5.69,10.57-11.06,20.55-17.24,29.26C825.51,483.64,798.33,499.62,784.68,506.87Z"/><path class="cls-4" d="M812.44,446.57c.74,2.13,1.22,3.35,1.27,3.48.29-1.14.57-2.28.85-3.37,12.28-48.84,25.45-53.3,66.39-94.4,41.88-42,21.38-84.4,21.38-84.4C767.94,299,804.63,424,812.44,446.57Z"/><path class="cls-5" d="M812.44,446.57c.74,2.13,1.22,3.35,1.27,3.48.29-1.14.57-2.28.85-3.37-2-42.9,26.45-91.59,35-100.14,8.87-8.85,14.71-21.37,16.92-26.08.37-.79.72-1.53.83-1.7l-1.81-1.15a20.61,20.61,0,0,0-1,1.94c-2.16,4.62-7.9,16.89-16.5,25.46C837.19,355.86,810.73,404.89,812.44,446.57Z"/><rect class="cls-6" x="246.88" y="370.87" width="641.86" height="578.7" rx="11"/><rect class="cls-7" x="525.67" y="650.93" width="139.12" height="26.93" rx="2.56"/><rect class="cls-8" x="525.67" y="689.5" width="139.12" height="109.99" rx="2.56"/><rect class="cls-7" x="755.55" y="458.71" width="78.45" height="7.87"/><rect class="cls-7" x="755.55" y="483.07" width="90.16" height="7.87"/><rect class="cls-7" x="755.42" y="507.3" width="46.65" height="7.87"/><rect class="cls-7" x="755.42" y="531.53" width="71.87" height="7.88"/><rect class="cls-9" x="280.49" y="869.62" width="343.25" height="8.05"/><rect class="cls-9" x="280.49" y="888.4" width="370.89" height="8.05"/><rect class="cls-9" x="280.49" y="907.19" width="240.65" height="8.05"/><rect class="cls-10" x="711.31" y="585.47" width="237.98" height="342.55" rx="9.9"/><rect class="cls-11" x="280.49" y="869.62" width="178.73" height="8.05"/><rect class="cls-12" x="280.49" y="888.4" width="193.12" height="8.05"/><rect class="cls-13" x="280.49" y="907.19" width="125.31" height="8.05"/><rect class="cls-14" x="741.46" y="796.96" width="171.24" height="12.16" rx="1.41"/><rect class="cls-14" x="741.46" y="823.8" width="121.87" height="12.16" rx="1.41"/><rect class="cls-14" x="741.46" y="850.63" width="144.77" height="12.16" rx="1.41"/><rect class="cls-9" x="800.1" y="883.63" width="63.23" height="63.23" rx="5.08"/><rect class="cls-15" x="828.72" y="902.66" width="5.99" height="25.16"/><rect class="cls-15" x="828.72" y="902.66" width="5.98" height="25.16" transform="translate(1746.95 83.52) rotate(90)"/><rect class="cls-10" x="133.24" y="641.52" width="403.35" height="369.35" rx="10.46"/><polygon class="cls-16" points="488.54 770.66 488.19 768.52 436.23 777.04 419.38 812.94 363.35 816.74 345.2 843.51 302.37 842.45 302.32 844.61 346.33 845.7 364.55 818.82 420.79 815.01 437.69 778.98 488.54 770.66"/><path class="cls-17" d="M425,698.15h56a6.41,6.41,0,0,0,6.4-6.41h0a6.41,6.41,0,0,0-6.4-6.4H425a6.41,6.41,0,0,0-6.4,6.4h0A6.41,6.41,0,0,0,425,698.15Z"/><path class="cls-16" d="M425,720.48h56a6.41,6.41,0,0,0,6.4-6.4h0a6.4,6.4,0,0,0-6.4-6.4H425a6.4,6.4,0,0,0-6.4,6.4h0A6.41,6.41,0,0,0,425,720.48Z"/><path class="cls-16" d="M425,742.81h56a6.4,6.4,0,0,0,6.4-6.4h0A6.4,6.4,0,0,0,481,730H425a6.4,6.4,0,0,0-6.4,6.4h0A6.4,6.4,0,0,0,425,742.81Z"/><rect class="cls-16" x="167.23" y="683.34" width="214.31" height="30.74" rx="2.82"/><rect class="cls-17" x="167.23" y="727.44" width="214.31" height="30.75" rx="2.82"/><path class="cls-16" d="M481.51,858.33a53.92,53.92,0,1,0-87,63.7c.72,1,1.46,1.93,2.23,2.84a53.92,53.92,0,0,0,84.79-66.54ZM461.88,922.8a40.37,40.37,0,0,1-54.83-6.61c-.57-.69-1.13-1.4-1.67-2.13a40.43,40.43,0,1,1,56.5,8.74Z"/><path class="cls-18" d="M397.57,889.61l-13.49-.2a54,54,0,0,1,37-50.46l4.22,12.82a40.52,40.52,0,0,0-27.77,37.84Z"/><path class="cls-19" d="M407.05,916.19l-10.33,8.68c-.77-.91-1.51-1.86-2.23-2.84a53.69,53.69,0,0,1-10.41-32.62l13.49.2a40.3,40.3,0,0,0,7.81,24.45C405.92,914.79,406.48,915.5,407.05,916.19Z"/><path class="cls-20" d="M408.55,935.36a53.51,53.51,0,0,1-11.83-10.49l10.33-8.68a40.21,40.21,0,0,0,8.87,7.87Z"/><path class="cls-21" d="M42.93,777.83C53.7,772.68,64.41,807,64.41,807c18.29,24.17,43.85-8,41.36,28.15C101.39,898.33,178.55,855,143,921s31.43,37.32,9.31,90.55,6.55,116.72-26.73,90.63c0,0-29.31-64.27-59.53-84.15s18.1-43.48,8.65-70.48c-13.74-39.23-46.83-37.69-23-79.84S6.35,795.33,42.93,777.83Z"/><path class="cls-9" d="M136.07,1078c-14.43-10.15-31.32-80.86-32.32-123-.52-21.57-6.9-30.55-12.52-38.48-5.38-7.58-10-14.13-7.32-29.16,5.17-28.73-8.42-41.12-8.56-41.24l1.57-1.8c.61.53,14.77,13.32,9.34,43.46-2.53,14.05,1.64,19.92,6.91,27.35,5.54,7.81,12.43,17.52,13,39.82,1.08,45.2,18.35,112,31.31,121.07Z"/><path class="cls-22" d="M141.46,1083.24a30.6,30.6,0,0,1-6.09-.67c-5.57-1.12-9.21-4-10.84-8.72-3.89-11.12,5.12-29.19,12.43-37.9.12-.14,12.37-15.1,11.06-35.84-.22-3.48-.58-6.69-.9-9.53-.92-8.21-1.58-14.14,1.94-18.1,3.11-3.49,9.11-5,20.05-5.05,19.21-.09,26.8-8,32.9-14.43,2.59-2.71,5-5.27,8-6.9h0c9.57-5.22,19.7-6,24.1-1.82,2.09,2,3.85,5.85.39,13.08-3.16,6.61-7.26,10.79-10.55,14.15C219.53,976,216.6,979,218.12,985c.36,1.4.77,2.81,1.19,4.23,3,10.13,6.31,21.6-11,29.39-3.67,1.65-7,3-10,4.12-12.09,4.75-19.39,7.62-27.64,25-1.59,3.37-3,6.56-4.36,9.65C159.81,1072.1,154.89,1083.23,141.46,1083.24Zm69.7-135c-2.65,1.44-4.86,3.76-7.43,6.45-6.41,6.71-14.39,15.07-34.6,15.17-10.07,0-15.71,1.36-18.28,4.25-2.82,3.16-2.21,8.65-1.36,16.24.33,2.87.69,6.12.91,9.65a57,57,0,0,1-11.61,37.53c-7.24,8.62-15.44,25.77-12,35.57,1.33,3.82,4.38,6.23,9.06,7.17,16.32,3.3,20.82-6.91,28.28-23.82,1.37-3.11,2.79-6.31,4.4-9.71,8.64-18.25,16.71-21.42,28.92-26.21,2.93-1.15,6.25-2.45,9.88-4.08,15.43-6.93,12.64-16.46,9.7-26.54-.43-1.44-.85-2.88-1.21-4.3-1.86-7.26,1.81-11,6.44-15.73,3.34-3.4,7.12-7.26,10.11-13.51,1.56-3.27,2.86-7.72.12-10.32-3.61-3.42-12.77-2.48-21.32,2.19Z"/><path class="cls-23" d="M135.62,1097l-2.38-.13c.12-2.23,3.12-55,24.31-70.45,23.24-16.94,30.57-35.14,34.06-47.37,4.12-14.4,25-18.25,25.94-18.4L218,963c-.2,0-20.35,3.75-24.05,16.71-3.59,12.56-11.12,31.26-34.95,48.64C138.68,1043.14,135.65,1096.47,135.62,1097Z"/><path class="cls-24" d="M184.06,831.08c-15.05-5.16-11.93,23.86-18.29,45.34S95,885.78,122,939.56s-34.2,18-15.91,64.91,1.59,97.11,21.47,84.35,11.17-71.86,31.85-78.88,24.06-15.21,3.58-34.3,53.65-38,35.36-76.59S201.46,837.05,184.06,831.08Z"/><path class="cls-9" d="M136.82,1086.57c-1.89-8-18.07-78.73-3-87.27,13.3-7.54,13-36.83,10.9-64.49-1.84-24.49,29.61-35.94,30.95-36.42l.8,2.25c-.31.12-31.07,11.32-29.37,34,2.13,28.4,2.36,58.55-12.1,66.74-11.46,6.49-.91,63.31,4.12,84.65Z"/><polygon class="cls-25" points="171.05 1061.39 149.55 1142.96 101.5 1142.96 80 1061.39 171.05 1061.39"/><path class="cls-26" d="M171.05,1061.4s-47.33,8.88-47.33,81.56H101.5L80,1061.4Z"/><polygon class="cls-27" points="293.5 333.69 293.5 340.61 226.07 340.61 226.07 408.05 219.15 408.05 219.15 333.69 293.5 333.69"/><rect class="cls-28" x="237.78" y="955.44" width="67.73" height="4.02"/><rect class="cls-29" x="246.85" y="969.92" width="5.94" height="182.86" transform="translate(499.64 2122.7) rotate(180)"/><rect class="cls-30" x="294.91" y="954.3" width="47.08" height="5.74"/><rect class="cls-31" x="309.54" y="905.3" width="17.83" height="54.15"/><rect class="cls-32" x="213.48" y="959.52" width="260.87" height="10.4"/><path class="cls-33" d="M163.41,896.59s-2.85,40,5,44.8c4.89,3,24.42,13.12,23.84,15s-11,16.88-11,16.88-37.5-24.7-38.71-32.49c-1.18-7.6,1.85-58.58,7-60.93,3.86-1.75,5.9-.3,10.77,3.31C167.08,888.25,163.41,896.59,163.41,896.59Z"/><path class="cls-34" d="M209.56,1127.81s-1.17,8.1-1.31,9.32-13-.72-13-.72l-1-9.64S208,1126.67,209.56,1127.81Z"/><path class="cls-35" d="M208.38,1136.1s4.07,4.87,8,7,10.11,3,12.43,5.17c1.68,1.59,6.11,8.43-10.21,8.29s-24.2,1-25.95-1.66,2.53-19.35,2.53-19.35S199.05,1136.94,208.38,1136.1Z"/><path class="cls-34" d="M291.75,1127.89s-1.16,8.09-1.31,9.31-13-.71-13-.71l-1-9.64S290.15,1126.75,291.75,1127.89Z"/><path class="cls-35" d="M290.58,1136.17s4.06,4.88,8,7,18.4,3.87,20.73,6.07c1.67,1.59,4.47,8-18.51,7.39-16.32-.43-24.2,1-26-1.66s2.53-19.35,2.53-19.35S281,1137.11,290.58,1136.17Z"/><path class="cls-35" d="M168.18,988s46.64,7.89,57.18,9.54,67.65,15.87,74.79,20.2c5.69,3.45-3,86.25-5,117.84h-22.5L271,1040.79c-27,.67-46.27-6.32-65.93-3.33s-36.05,7.23-48.54-9.53C156.55,1027.93,156.09,991.63,168.18,988Z"/><path class="cls-35" d="M214.15,1135.63l-21.92-1.36-2.14-93.48c-11.62.29-15.61-.45-25-1.59l-17.7-41.15c15.51,3.11,65.22,15.65,71.85,19.66C224.91,1021.16,216.18,1104,214.15,1135.63Z"/><path class="cls-36" d="M189.65,813.14s17.1-4.73,23.62,8.55,3.57,38.43-5.05,40.8-21-.36-24.59-8.62-6.43-20-5.57-27.6S185.11,815,189.65,813.14Z"/><path class="cls-36" d="M203.75,859.84s-.19,10.09.93,12.25-23.81,1.61-23.81,1.61,3.93-12.12,1.7-22.45S203.75,859.84,203.75,859.84Z"/><path class="cls-37" d="M181.23,847.43s1.33,2.7,7.78,2.27,15-8.22,17.7-8.92,2.9-2.25,2.9-2.25l1.45,2.58,2.8.42s-1.9-7.8,2.25-10.54-1.87-24.87-22.91-19.53c0,0-16,2.94-16.26,11.9S178.11,842.68,181.23,847.43Z"/><path class="cls-28" d="M206,871.83s-.07-4.11-1.94-4.51-19.58-2.83-21.87-1.93l-1,5.43S185.6,873.53,206,871.83Z"/><path class="cls-36" d="M211.12,836.69c-.48-3.37-4.31-7.24-6.51-2s1.48,12.89,3.95,12.48S211.77,841.26,211.12,836.69Z"/><path class="cls-38" d="M280.23,920.41h0C280.33,920.46,280.35,920.47,280.23,920.41Z"/><path class="cls-37" d="M184.66,815.54s-20.84-1-3.63,31.57Z"/><polygon class="cls-39" points="138.22 1146.71 139.77 1151.08 205.29 1130.77 202.15 1121.94 138.22 1146.71"/><rect class="cls-39" x="200.09" y="1056.43" width="7.45" height="71.24"/><rect class="cls-40" x="181.85" y="1052.64" width="43.93" height="4.2"/><polygon class="cls-39" points="269.99 1146.71 268.44 1151.08 202.91 1130.77 205.79 1121.38 269.99 1146.71"/><polygon class="cls-39" points="223.82 1150.61 223.82 1155.68 202.91 1130.77 205.79 1121.38 223.82 1150.61"/><circle class="cls-41" cx="269.99" cy="1152.78" r="6.12"/><path class="cls-41" d="M224.34,1152.78a6.12,6.12,0,1,1-6.12-6.12A6.12,6.12,0,0,1,224.34,1152.78Z"/><path class="cls-41" d="M144.34,1152.78a6.13,6.13,0,1,1-6.12-6.12A6.12,6.12,0,0,1,144.34,1152.78Z"/><rect class="cls-28" x="152.07" y="1036.74" width="104.06" height="15.9" rx="3.16"/><rect class="cls-29" x="435.03" y="969.92" width="5.93" height="182.86"/><rect class="cls-42" x="241.47" y="822.78" width="153.95" height="108.61" rx="3.33"/><rect class="cls-43" x="247.5" y="828.65" width="141.89" height="85.71"/><path class="cls-44" d="M383.09,922.45c0,2.44-2.56,4.42-5.72,4.42s-5.72-2-5.72-4.42,2.57-4.41,5.72-4.41S383.09,920,383.09,922.45Z"/><path class="cls-31" d="M350.32,959.66v-1.93s-2.71-12-21.93-12-18.83,13.95-18.83,13.95Z"/><path class="cls-36" d="M309.32,947.49s4.18-.32,5.71-1.24,10.68-7.08,12.83-6.1,16.45,5.37,16,7.46S342,949.5,341,949.13s-11.4-2.55-12.32-2.18c0,0,10.21,3.72,10.25,6.44s-2.14,3.38-3.1,4.4-2.13,3.58-4.76,3.78S315.6,957.3,313,957.1s-7.52.16-7.86-.27S309.32,947.49,309.32,947.49Z"/><path class="cls-33" d="M233.31,877.53c-13.31-2.34-27.32-5.7-27.32-5.7l-24.8-1s-22.75,5-31.71,9c-.85.39-.85,20.3-3.19,25.52l7.43,15.68s4.29,31,5.18,44.86c.41,6.33-1.15,61.26-1.15,61.26s2.23,1.1,19.15,3,59.2-.67,59.46-2.67-8.19-74.41-8.56-78.17c-.58-5.75,1.66-32.35,1.66-32.35,3.19,4.28,11.32,23.62,19.79,32.82,5,5.42,29.66,8.74,34.31,8.89,10.12.34,28.59,2.35,29.13,1.37.43-.59,1.61-16.39.45-16.78-1-.34-35.31-2.31-44.09-7-3.22-1.71-12.83-22.66-12.83-22.66S240.66,880.83,233.31,877.53Z"/><rect class="cls-28" x="127.76" y="926.21" width="71.76" height="99.4" rx="6.42"/><path class="cls-28" d="M186.81,1048.68c-10.58,0-19.16-3.55-25.51-10.56-14.35-15.84-11.77-43.68-11.65-44.86a4,4,0,1,1,7.94.79c0,.31-2.31,25.55,9.64,38.73,4.84,5.33,11.24,7.91,19.58,7.91a4,4,0,0,1,0,8Z"/><rect class="cls-45" x="257.56" y="835.48" width="41.57" height="4.53" rx="0.48"/><rect class="cls-45" x="257.56" y="845.19" width="41.57" height="4.53" rx="0.48"/><rect class="cls-45" x="257.56" y="856.33" width="41.57" height="51.21" rx="1.61"/><rect class="cls-45" x="307.52" y="835.48" width="74.02" height="72.06" rx="2.54"/><rect class="cls-46" x="291.48" y="449.44" width="1.33" height="139.35"/><rect class="cls-46" x="385.92" y="449.44" width="1.33" height="139.35"/><rect class="cls-46" x="480.36" y="449.44" width="1.33" height="139.35"/><rect class="cls-46" x="574.8" y="449.44" width="1.33" height="139.35"/><rect class="cls-46" x="669.24" y="449.44" width="1.33" height="139.35"/><rect class="cls-47" x="292.14" y="597.04" width="15.03" height="4.84"/><rect class="cls-48" x="292.14" y="432.26" width="22.62" height="3.63"/><rect class="cls-48" x="292.14" y="438.98" width="32.09" height="3.63"/><rect class="cls-48" x="385.57" y="432.26" width="26.56" height="3.63"/><rect class="cls-48" x="385.57" y="438.98" width="16.98" height="3.63"/><rect class="cls-48" x="481.69" y="432.26" width="16.46" height="3.63"/><rect class="cls-48" x="481.69" y="438.98" width="19.18" height="3.63"/><rect class="cls-48" x="576.13" y="432.26" width="23.97" height="3.63"/><rect class="cls-48" x="576.13" y="438.98" width="19.18" height="3.63"/><rect class="cls-48" x="669.91" y="432.26" width="14.32" height="3.63"/><rect class="cls-48" x="669.91" y="438.98" width="11.45" height="3.63"/><rect class="cls-47" x="386.58" y="597.04" width="15.03" height="4.84"/><rect class="cls-47" x="481.69" y="597.04" width="15.03" height="4.84"/><rect class="cls-47" x="576.13" y="597.04" width="15.02" height="4.84"/><rect class="cls-47" x="670.57" y="597.04" width="15.03" height="4.84"/><path class="cls-49" d="M637.18,547.38c-29.46,0-55.07-12.73-81.76-26-33-16.39-67-33.34-112.44-28.7-29,3-47.19,14.77-63.24,25.19-14.54,9.43-28.29,17.72-46.9,18.44-30.09,1.14-40.52-11.69-40.7-12.48V515.6h0c0,.14,6.61,14.55,40.67,14.38,16.77-.09,29.15-8.12,43.48-17.42,16.66-10.81,35.53-23.06,66-26.18,47.22-4.82,82.14,12.54,115.9,29.33,35.33,17.56,69,34,111.67,19.75v6.77A96.33,96.33,0,0,1,637.18,547.38Z"/><path class="cls-50" d="M460.36,545.81c-21.74,0-39-14.63-55.87-28.94-12.8-10.85-26.08-21.95-41.41-27.42-46.79-16.71-70.72,13.79-70.94,14.06v-9.28c.26-.31,4.53-5.86,16.88-11.15,11.24-4.82,30.11-8.67,56.14.39,16.49,5.73,30.18,17.34,43.43,28.57,26.86,22.78,50.06,42.45,90.36,11.64,30.51-23.34,59.28-45.58,87.59-53.7,27.69-8,56.55-2.13,83.56,24.89l-.19,8.42c-57.4-57.64-106.26-21.12-167.12,25.42C486.67,541,472.78,545.81,460.36,545.81Z"/><path class="cls-51" d="M900.88,771.41H759.72A19.47,19.47,0,0,1,740.27,752V627a19.47,19.47,0,0,1,19.45-19.45H900.88A19.47,19.47,0,0,1,920.33,627V752A19.47,19.47,0,0,1,900.88,771.41ZM759.72,609.94A17.11,17.11,0,0,0,742.64,627V752a17.1,17.1,0,0,0,17.08,17.08H900.88A17.1,17.1,0,0,0,918,752V627a17.11,17.11,0,0,0-17.08-17.09Z"/><path class="cls-52" d="M984.5,1122.84s1.28,9,1.44,10.31,14.23-.79,14.23-.79l1.13-10.67S986.26,1121.58,984.5,1122.84Z"/><path class="cls-53" d="M985.79,1132s-4.46,5.4-8.76,7.76-11.09,3.28-13.64,5.72c-1.84,1.75-6.7,9.33,11.2,9.17s26.54,1.07,28.45-1.83-2.77-21.42-2.77-21.42S996,1132.94,985.79,1132Z"/><path class="cls-52" d="M883.71,1122.84s1.28,9,1.44,10.31,14.23-.79,14.23-.79l1.14-10.67S885.47,1121.58,883.71,1122.84Z"/><path class="cls-53" d="M885,1132s-4.45,5.4-8.76,7.76-20.18,4.28-22.73,6.72c-1.83,1.76-4.89,8.84,20.3,8.17,17.89-.47,26.53,1.07,28.45-1.83s-2.78-21.42-2.78-21.42S895.49,1133.05,885,1132Z"/><path class="cls-54" d="M979.51,891.48s7.48,22.24,6.5,41.4S989.88,973,991.86,993c2.21,22.32,11.27,75.15,11.6,87.09s-1.4,50.06-1.4,50.06l-18.13.42s-15.23-92.37-19.18-101.8-23.5-76.61-24.16-84.15S979.51,891.48,979.51,891.48Z"/><path class="cls-53" d="M903.28,895.44S893.32,948,892,959.69s-2.19,56.77-2.84,64.1-4.39,95.93-7.89,106.82h23.18s17.79-64.41,17.79-94.89,13.75-66.24,22.62-86.35,29.19-20.58,34.65-57.89C979.51,891.48,910.66,883.61,903.28,895.44Z"/><path class="cls-36" d="M950.39,715.93s-18.28-6.82-26.7,7.09-7.61,41.76,1.6,45.18,23,1.63,27.76-7.07,9-21.29,8.77-29.7S955.19,718.36,950.39,715.93Z"/><path class="cls-36" d="M928.35,767.35s.74,4.78-.48,7.15,23,2.41,23,2.41a159.38,159.38,0,0,1,5.68-23.67C960.27,742.39,928.35,767.35,928.35,767.35Z"/><path class="cls-55" d="M956.54,753.24s-1.66,2.75-8.48,1.68-15.14-10.14-18-11.13-2.87-2.67-2.87-2.67l-1.78,2.6-3,.19s2.76-8.11-1.4-11.42,4.32-26.27,26.19-18.63c0,0,16.79,4.63,16.19,14.18S960.3,748.48,956.54,753.24Z"/><path class="cls-28" d="M926.44,774.21s.08-4.51,2.11-4.94,22.56-2.41,25.07-1.42v5.25S948.79,776.08,926.44,774.21Z"/><path class="cls-36" d="M927.65,737.64c.39-1.6,4.46-6.18,6-1.27s-2.36,11.49-4.54,10.93S926.68,741.7,927.65,737.64Z"/><path class="cls-56" d="M926.44,774.21s-11.25,4-24.28,9.58c0,0-15,5.59-16.6,22.14-.86,8.78-10.21,55.39-12,59.34s-22.49,67.3-23.22,68.62,16.92,8.64,18.09,8.06,20.07-57.79,22-62c0,0,10.88-34.3,11.17-39.41,0,0,.32,14.57.9,18.66s-9.68,83.52-9.38,85.71,46.64,5,65.2,2.93a227.39,227.39,0,0,0,33.52-6.32s-14.6-62.68-14.16-69.63c1-15.14,6-43.66,6-43.66l15.13,28.52-19.36,49.82,4.43,15.14s36-54.38,37.15-59.34-1.76-11.3-3.66-15.39-14.37-35.22-17.29-39.6-7.86-21.93-19.8-26.82c-10-4.08-26.72-7.43-26.72-7.43Z"/><rect class="cls-57" x="823.14" y="891.64" width="87.51" height="61.05" transform="translate(256.23 -186.43) rotate(14.38)"/><path class="cls-58" d="M843,946.82s-2.42,3.91-3.3,5,2.17,1.82,3.48.69S843,946.82,843,946.82Z"/><path class="cls-59" d="M860.65,960.19a9.42,9.42,0,0,0,1.74-2.45s.42-1.78.8-3a8,8,0,0,1,.34-1,17.29,17.29,0,0,0,1.93-5.15c.38-2.41,1.43-13.26,1.43-13.26l-6.56-1.65-5.28-1.12s-11.39,11.37-12,13.58a5.27,5.27,0,0,0-.14.64c-.34,1.92.23,3.49.16,4.52,0,.38,0,4.15.92,4.85a3.64,3.64,0,0,0,3.47.84s2.48,1.82,4.54,1.71a5.45,5.45,0,0,0,4.75.88S859.21,961.11,860.65,960.19Z"/><path class="cls-56" d="M886.28,891.6s-15,45.57-17.81,50.35c0,0-11-2.32-18.09-8.06l16.51-49.17Z"/><path class="cls-36" d="M667.11,890.49a57.48,57.48,0,0,0-6.58-.4c-2.1.12-11.45,5.37-14.6,5.22s-24.18-7-25.16-7.58.26-2.06.26-2.06l46.55-4.56Z"/><path class="cls-60" d="M704.53,815.46l4.8,49s2.1,6.06-11.63,8.29c-14,2.28-35.91,7-35.91,7s.36,16.35,2.21,16.45c5.34.28,45.11-6.45,60.86-9.78,12.5-2.64,4.67-69.49,4.67-69.49Z"/><path class="cls-36" d="M666.44,874a57.55,57.55,0,0,1-6.45,1.36c-2.1.2-12.12-3.6-15.21-3S621.9,882.93,621,883.62s.56,2,.56,2l46.71-2.39Z"/><path class="cls-35" d="M718.05,1133.23s-9.68,5.88-14.07,8.07-21.55,3-23.22,4.65-1,6.76,1.86,7.24,23.73,2.13,30.67.42,20,.87,22.85-.14.83-16.53-.33-20S718.05,1133.23,718.05,1133.23Z"/><path class="cls-61" d="M717.16,1126.88l.89,6.35s13.07,2.28,17,.22l-1.06-6.59Z"/><path class="cls-35" d="M691.39,904.6c-.37,4.39-.66,14-.88,24,0,2.23-.09,4.49-.13,6.73-.25,13.55-.37,26.1-.37,26.1.64,17,3.33,53.92,8.41,62.21,6.85,11.18,14.79,104.22,14.79,104.22l25.15,2.7s1.56-62.2-2.2-78.45c-4.19-18.14-12.25-42.87-7.65-59.37,2.89-10.36,8.92-43.69,8.92-43.69s6.44-37.48-.25-66.25C735.51,875.64,691.39,904.6,691.39,904.6Z"/><path class="cls-35" d="M674.85,1133.23s-9.68,5.88-14.07,8.07-21.55,3-23.22,4.65-1,6.76,1.86,7.24,23.72,2.13,30.66.42,20,.87,22.86-.14.83-16.53-.33-20S674.85,1133.23,674.85,1133.23Z"/><path class="cls-61" d="M674,1126.88l.89,6.35s13.07,2.28,17,.22l-1.06-6.59Z"/><path class="cls-35" d="M668.56,1129.77h25.78s8.66-49.87,9.37-71.84h0a55.89,55.89,0,0,0-.07-6.08c-.37-4.66-.93-9.76-1.44-15a.41.41,0,0,0,0-.11c-1.52-15.73-2.64-33,2.57-44.69,4.38-9.82,15.21-41.91,15.21-41.91s11.85-36.14,9.45-65.58c-.6-7.36-46.42,11.13-46.42,11.13-1,4.29-4.07,17.78-5.15,27.78-6.21,57.17-3.88,94.41-3.88,94.41C677.51,1030.46,668.56,1129.77,668.56,1129.77Z"/><path class="cls-62" d="M687,773.75s-9,21.27-10.79,32.66,5.71,42.58,6,49c1.06,20,1.55,42.11,1.55,42.11L727.46,917a398.45,398.45,0,0,0,7.75-39.51c3.11-21.73.8-40.52-1.14-53-6.08-39.21-30.62-58.18-30.62-58.18Z"/><path class="cls-36" d="M653.89,735.48s-3,11.71.13,12.64c2.61.76.15,12.13-.09,14s4.84,1.84,6.12,2.65,7.53,13.2,11.57,12.63S691.9,766.22,695.49,760s2-29.9-3.62-38.69S659.28,715,653.89,735.48Z"/><path class="cls-36" d="M678.52,764.33s.32,1.15.77,2.92c.19.75.4,1.6.63,2.53.17.71.35,1.45.53,2.22.07.28.13.56.2.84.29,1.3.59,2.65.86,4a43.2,43.2,0,0,1,1.13,8.69c-.24,5.23,18.42-19.49,18.42-19.49a253,253,0,0,1-6.26-35.17C692.9,712,678.52,764.33,678.52,764.33Z"/><path class="cls-35" d="M653.33,738s-8.44-9.76-.14-20.59,30.94-1,33.23-1,14.45-2.15,13.8,20.78c-.58,20.41-1.59,19.53-1.59,19.53s-6.28-8.57-8.92-9.64c-4.12-1.67-11.62.82-11.62.82s1.26-10.58-4.78-10.55S658.57,734.43,653.33,738Z"/><path class="cls-36" d="M682.79,740.88c.18-1.45.4-7.56,6.12-5.41s.43,14.86-.39,15.21S681.32,753.1,682.79,740.88Z"/><path class="cls-63" d="M681,904.64s2-9.42,2.4-10.83l58.9,9.8-.59,7.61S699.27,908.68,681,904.64Z"/><path class="cls-33" d="M742.49,857.52s-3.15,41,17.68,85c2.54,5.38-39,5.1-39,5.1Z"/><path class="cls-33" d="M681.8,821.06c.77,4.52,1.44,9.09,2,13.66h0c1.15,9.11,1.93,18.24,2.44,27.15l.15,2.78q.11,2.25.21,4.47.1,3,.2,5.88C688,915.53,703,947.47,703,947.47s29.78,2,37.45-2.13c0,0,5.34-45.64,2.92-90.77-.19-3.48-.42-7-.71-10.42h0c-3-36.54-17.32-71.88-39.19-77.86C702.93,766.77,677.75,797.28,681.8,821.06Z"/><rect class="cls-64" x="585.4" y="884.55" width="77.79" height="7.13" transform="translate(1283.94 1750.28) rotate(177.68)"/><rect class="cls-64" x="536.86" y="851.87" width="77.79" height="7.13" transform="translate(-34.72 1686.45) rotate(-109.76)"/><path class="cls-65" d="M691.85,1013.46c2.19,14.18,11.65,43.81,11.86,44.47a55.89,55.89,0,0,0-.07-6.08c-.37-4.66-.93-9.76-1.44-15a.41.41,0,0,0,0-.11c-.49-4.6-3.79-13.07-6-18.83S691.85,989,691.85,989,689.63,999.12,691.85,1013.46Z"/><path class="cls-66" d="M680.65,772.84c.29,1.3.59,2.65.86,4,5.49-3.77,11.79-13.79,12.18-14.41C691.45,765.67,680.81,772.73,680.65,772.84Z"/><path class="cls-67" d="M686.39,859.57l.15,2.71c.08,1.46.15,2.92.21,4.37,6.68-1.37,19.38-4.78,23.2-11.54,5.2-9.23-7.78-30.78-8.06-31.24.12.57,5.55,27.11,0,29.75C698.28,855.33,690.8,857.67,686.39,859.57Z"/><path class="cls-68" d="M681.9,791.87a161.51,161.51,0,0,0-.54,49.77c3.34,22.67,4.63,38.94,4.63,38.94L684.32,887l-3.05-4.91S676,853,675,841s-2-28.52,5-49.21Z"/><path class="cls-68" d="M682.2,791.89a3.28,3.28,0,0,1-1.46,1c-.91.28-2.45-1,1.34-7.95Z"/><path class="cls-69" d="M700.41,763.44s-11.5,14.63-19,18.61l.29,12.32,21.8-28.09Z"/><path class="cls-33" d="M725.39,803.61c-.89-5.6-7.42-29.39-20.86-25.89s-9.66,19.68-6.73,31.88c3.07,12.76,14.06,43.59,12.14,45.51s-17.47,9-20.86,10.14-25,8-26.62,8.73,8.34,18.34,8.34,18.34,53.75-18.33,62.86-24.26S725.39,803.61,725.39,803.61Z"/></g></g></svg>